<svg width="40" height="40" viewBox="0 0 40 40" fill="none" xmlns="http://www.w3.org/2000/svg">
<circle cx="20" cy="20" r="20" fill="#6345ED"/>
<path d="M24.0625 19.1562H18.375V21.2188H21.7812C21.6562 22.0938 20.75 23.8125 18.375 23.8125C16.3438 23.8125 14.6562 22.125 14.6562 20C14.6562 17.9062 16.3438 16.2188 18.375 16.2188C19.5625 16.2188 20.3438 16.7188 20.7812 17.1562L22.4062 15.5938C21.3438 14.5938 20 14 18.375 14C15.0625 14 12.375 16.6875 12.375 20C12.375 23.3438 15.0625 26 18.375 26C21.8438 26 24.1562 23.5938 24.1562 20.1562C24.1562 19.75 24.0938 19.4688 24.0625 19.1562ZM29.8438 19.3438V17.625H28.0938V19.3438H26.3438V21.0938H28.0938V22.8438H29.8438V21.0938H31.5938V19.3438H29.8438Z" fill="white"/>
</svg>
