<svg width="128" height="128" viewBox="0 0 128 128" fill="none" xmlns="http://www.w3.org/2000/svg">
<path d="M76 77.98H12C8.691 77.98 6 75.289 6 71.98V35.98C6 32.671 8.691 29.98 12 29.98H76C79.309 29.98 82 32.671 82 35.98V71.98C82 75.289 79.309 77.98 76 77.98ZM12 33.98C10.897 33.98 10 34.877 10 35.98V71.98C10 73.083 10.897 73.98 12 73.98H76C77.103 73.98 78 73.083 78 71.98V35.98C78 34.877 77.103 33.98 76 33.98H12Z" fill="black"/>
<path d="M44 92C43.4696 92 42.9609 91.7893 42.5858 91.4142C42.2107 91.0391 42 90.5304 42 90V76C42 75.4696 42.2107 74.9609 42.5858 74.5858C42.9609 74.2107 43.4696 74 44 74C44.5304 74 45.0391 74.2107 45.4142 74.5858C45.7893 74.9609 46 75.4696 46 76V90C46 90.5304 45.7893 91.0391 45.4142 91.4142C45.0391 91.7893 44.5304 92 44 92Z" fill="black"/>
<path d="M56 92H32C31.4696 92 30.9609 91.7893 30.5858 91.4142C30.2107 91.0391 30 90.5304 30 90C30 89.4696 30.2107 88.9609 30.5858 88.5858C30.9609 88.2107 31.4696 88 32 88H56C56.5304 88 57.0391 88.2107 57.4142 88.5858C57.7893 88.9609 58 89.4696 58 90C58 90.5304 57.7893 91.0391 57.4142 91.4142C57.0391 91.7893 56.5304 92 56 92ZM116 92H100C96.691 92 94 89.309 94 86V36C94 32.691 96.691 30 100 30H116C119.309 30 122 32.691 122 36V86C122 89.309 119.309 92 116 92ZM100 34C98.897 34 98 34.897 98 36V86C98 87.103 98.897 88 100 88H116C117.103 88 118 87.103 118 86V36C118 34.897 117.103 34 116 34H100Z" fill="black"/>
<path d="M120 46H96C95.4696 46 94.9609 45.7893 94.5858 45.4142C94.2107 45.0391 94 44.5304 94 44C94 43.4696 94.2107 42.9609 94.5858 42.5858C94.9609 42.2107 95.4696 42 96 42H120C120.53 42 121.039 42.2107 121.414 42.5858C121.789 42.9609 122 43.4696 122 44C122 44.5304 121.789 45.0391 121.414 45.4142C121.039 45.7893 120.53 46 120 46ZM108 80C105.794 80 104 78.206 104 76C104 73.794 105.794 72 108 72C110.206 72 112 73.794 112 76C112 78.206 110.206 80 108 80Z" fill="#DC39FC"/>
</svg>
