<svg width="205" height="55" viewBox="0 0 205 55" fill="none" xmlns="http://www.w3.org/2000/svg">
<path d="M0 27.5C0 12.3122 12.3122 0 27.5 0H177.5C192.688 0 205 12.3122 205 27.5C205 42.6878 192.688 55 177.5 55H27.5C12.3122 55 0 42.6878 0 27.5Z" fill="url(#paint0_linear_9_1179)"/>
<path d="M70.96 33V21.8H74.96C75.568 21.8 76.1173 21.952 76.608 22.256C77.104 22.56 77.496 22.968 77.784 23.48C78.072 23.992 78.216 24.5547 78.216 25.168C78.216 25.7973 78.0667 26.368 77.768 26.88C77.4747 27.3867 77.08 27.792 76.584 28.096C76.088 28.3947 75.5467 28.544 74.96 28.544H72.912V33H70.96ZM72.912 26.592H74.752C75.0293 26.592 75.2827 26.5227 75.512 26.384C75.7413 26.2453 75.9227 26.0587 76.056 25.824C76.1947 25.5893 76.264 25.328 76.264 25.04C76.264 24.7467 76.1947 24.4827 76.056 24.248C75.9227 24.0133 75.7413 23.8267 75.512 23.688C75.2827 23.5493 75.0293 23.48 74.752 23.48H72.912V26.592ZM82.6519 33.208C81.9159 33.208 81.2439 33.0187 80.6359 32.64C80.0332 32.2613 79.5505 31.7547 79.1879 31.12C78.8305 30.48 78.6519 29.7733 78.6519 29C78.6519 28.4133 78.7559 27.8667 78.9639 27.36C79.1719 26.848 79.4572 26.4 79.8199 26.016C80.1879 25.6267 80.6145 25.3227 81.0999 25.104C81.5852 24.8853 82.1025 24.776 82.6519 24.776C83.3879 24.776 84.0572 24.9653 84.6599 25.344C85.2679 25.7227 85.7505 26.232 86.1079 26.872C86.4705 27.512 86.6519 28.2213 86.6519 29C86.6519 29.5813 86.5479 30.1253 86.3399 30.632C86.1319 31.1387 85.8439 31.5867 85.4759 31.976C85.1132 32.36 84.6892 32.6613 84.2039 32.88C83.7239 33.0987 83.2065 33.208 82.6519 33.208ZM82.6519 31.256C83.0412 31.256 83.3905 31.152 83.6999 30.944C84.0092 30.736 84.2519 30.4613 84.4279 30.12C84.6092 29.7787 84.6999 29.4053 84.6999 29C84.6999 28.584 84.6065 28.2053 84.4199 27.864C84.2385 27.5173 83.9905 27.2427 83.6759 27.04C83.3665 26.832 83.0252 26.728 82.6519 26.728C82.2679 26.728 81.9212 26.832 81.6119 27.04C81.3025 27.248 81.0572 27.5253 80.8759 27.872C80.6945 28.2187 80.6039 28.5947 80.6039 29C80.6039 29.4213 80.6972 29.8027 80.8839 30.144C81.0705 30.4853 81.3185 30.7573 81.6279 30.96C81.9425 31.1573 82.2839 31.256 82.6519 31.256ZM90.32 33.144C89.904 33.1173 89.5013 33.0347 89.112 32.896C88.728 32.752 88.3867 32.5573 88.088 32.312C87.7893 32.0667 87.56 31.7733 87.4 31.432L89.048 30.728C89.112 30.8347 89.216 30.9493 89.36 31.072C89.504 31.1893 89.6747 31.288 89.872 31.368C90.0747 31.448 90.296 31.488 90.536 31.488C90.7387 31.488 90.9307 31.4613 91.112 31.408C91.2987 31.3493 91.448 31.2613 91.56 31.144C91.6773 31.0267 91.736 30.8747 91.736 30.688C91.736 30.4907 91.6667 30.3387 91.528 30.232C91.3947 30.12 91.224 30.0373 91.016 29.984C90.8133 29.9253 90.616 29.872 90.424 29.824C89.9173 29.7227 89.4453 29.5653 89.008 29.352C88.576 29.1387 88.2267 28.864 87.96 28.528C87.6987 28.1867 87.568 27.776 87.568 27.296C87.568 26.768 87.7067 26.312 87.984 25.928C88.2667 25.544 88.632 25.248 89.08 25.04C89.5333 24.832 90.0213 24.728 90.544 24.728C91.1787 24.728 91.76 24.8613 92.288 25.128C92.8213 25.3893 93.2427 25.76 93.552 26.24L92.008 27.152C91.9333 27.024 91.8293 26.9067 91.696 26.8C91.5627 26.688 91.4107 26.5973 91.24 26.528C91.0693 26.4533 90.8907 26.4107 90.704 26.4C90.464 26.3893 90.2453 26.4107 90.048 26.464C89.8507 26.5173 89.6907 26.608 89.568 26.736C89.4507 26.864 89.392 27.0347 89.392 27.248C89.392 27.4507 89.472 27.6027 89.632 27.704C89.792 27.8 89.984 27.8747 90.208 27.928C90.4373 27.9813 90.656 28.04 90.864 28.104C91.3333 28.2587 91.7733 28.448 92.184 28.672C92.6 28.896 92.9333 29.1707 93.184 29.496C93.4347 29.8213 93.5547 30.2107 93.544 30.664C93.544 31.1813 93.3893 31.6347 93.08 32.024C92.7707 32.408 92.3707 32.7013 91.88 32.904C91.3947 33.1067 90.8747 33.1867 90.32 33.144ZM99.2011 26.952H97.6491V33H95.6971V26.952H94.5131V25H95.6971V22.488H97.6491V25H99.2011V26.952ZM111.355 21.8H113.659L109.811 27.952V33H107.859V27.952L104.011 21.8H106.315L108.835 25.824L111.355 21.8ZM116.918 33.208C116.182 33.208 115.51 33.0187 114.902 32.64C114.299 32.2613 113.816 31.7547 113.454 31.12C113.096 30.48 112.918 29.7733 112.918 29C112.918 28.4133 113.022 27.8667 113.23 27.36C113.438 26.848 113.723 26.4 114.086 26.016C114.454 25.6267 114.88 25.3227 115.366 25.104C115.851 24.8853 116.368 24.776 116.918 24.776C117.654 24.776 118.323 24.9653 118.926 25.344C119.534 25.7227 120.016 26.232 120.374 26.872C120.736 27.512 120.918 28.2213 120.918 29C120.918 29.5813 120.814 30.1253 120.606 30.632C120.398 31.1387 120.11 31.5867 119.742 31.976C119.379 32.36 118.955 32.6613 118.47 32.88C117.99 33.0987 117.472 33.208 116.918 33.208ZM116.918 31.256C117.307 31.256 117.656 31.152 117.966 30.944C118.275 30.736 118.518 30.4613 118.694 30.12C118.875 29.7787 118.966 29.4053 118.966 29C118.966 28.584 118.872 28.2053 118.686 27.864C118.504 27.5173 118.256 27.2427 117.942 27.04C117.632 26.832 117.291 26.728 116.918 26.728C116.534 26.728 116.187 26.832 115.878 27.04C115.568 27.248 115.323 27.5253 115.142 27.872C114.96 28.2187 114.87 28.5947 114.87 29C114.87 29.4213 114.963 29.8027 115.15 30.144C115.336 30.4853 115.584 30.7573 115.894 30.96C116.208 31.1573 116.55 31.256 116.918 31.256ZM121.671 30.04V25H123.623V29.528C123.623 29.8427 123.701 30.1307 123.855 30.392C124.01 30.648 124.215 30.8533 124.471 31.008C124.733 31.1573 125.018 31.232 125.327 31.232C125.647 31.232 125.935 31.1573 126.191 31.008C126.447 30.8533 126.653 30.648 126.807 30.392C126.962 30.1307 127.039 29.8427 127.039 29.528V25H128.991L128.999 33H127.047L127.039 32.272C126.762 32.56 126.434 32.7893 126.055 32.96C125.677 33.1253 125.271 33.208 124.839 33.208C124.258 33.208 123.727 33.0667 123.247 32.784C122.767 32.496 122.383 32.1147 122.095 31.64C121.813 31.16 121.671 30.6267 121.671 30.04ZM130.609 33L130.601 25H132.553L132.561 25.712C132.833 25.424 133.158 25.1973 133.537 25.032C133.915 24.8613 134.323 24.776 134.761 24.776C135.054 24.776 135.347 24.8187 135.641 24.904L134.873 26.872C134.67 26.792 134.467 26.752 134.265 26.752C133.95 26.752 133.662 26.8293 133.401 26.984C133.145 27.1333 132.939 27.3387 132.785 27.6C132.635 27.856 132.561 28.1413 132.561 28.456V33H130.609ZM144.345 21.8H146.593L150.665 33H148.593L147.873 31.016H143.073L142.353 33H140.281L144.345 21.8ZM143.785 29.064H147.153L145.465 24.448L143.785 29.064ZM157.508 21H159.46V33H157.508V32C157.252 32.3573 156.929 32.648 156.54 32.872C156.151 33.096 155.7 33.208 155.188 33.208C154.607 33.208 154.063 33.0987 153.556 32.88C153.049 32.6613 152.601 32.36 152.212 31.976C151.828 31.5867 151.527 31.1387 151.308 30.632C151.089 30.1253 150.98 29.5813 150.98 29C150.98 28.4187 151.089 27.8747 151.308 27.368C151.527 26.8613 151.828 26.416 152.212 26.032C152.601 25.6427 153.049 25.3387 153.556 25.12C154.063 24.9013 154.607 24.792 155.188 24.792C155.7 24.792 156.151 24.904 156.54 25.128C156.929 25.3467 157.252 25.6373 157.508 26V21ZM155.212 31.328C155.628 31.328 155.996 31.224 156.316 31.016C156.636 30.808 156.887 30.528 157.068 30.176C157.249 29.8187 157.34 29.4267 157.34 29C157.34 28.568 157.249 28.176 157.068 27.824C156.887 27.4667 156.633 27.184 156.308 26.976C155.988 26.768 155.623 26.664 155.212 26.664C154.801 26.664 154.425 26.7707 154.084 26.984C153.748 27.192 153.479 27.472 153.276 27.824C153.079 28.176 152.98 28.568 152.98 29C152.98 29.432 153.081 29.824 153.284 30.176C153.487 30.528 153.756 30.808 154.092 31.016C154.433 31.224 154.807 31.328 155.212 31.328Z" fill="white"/>
<path d="M59.4062 24H47.5C47.2188 24 47 23.7812 47 23.5C47 23.25 47.2188 23 47.5 23H59.5C59.75 23 60 22.7812 60 22.5C60 21.6875 59.3125 21 58.5 21H47C45.875 21 45 21.9062 45 23V33C45 34.125 45.875 35 47 35H59.4062C60.2812 35 61 34.3438 61 33.5V25.5C61 24.6875 60.2812 24 59.4062 24ZM58 30.5C57.4375 30.5 57 30.0625 57 29.5C57 28.9688 57.4375 28.5 58 28.5C58.5312 28.5 59 28.9688 59 29.5C59 30.0625 58.5312 30.5 58 30.5Z" fill="white"/>
<defs>
<linearGradient id="paint0_linear_9_1179" x1="65.7708" y1="-5.40943e-07" x2="86.7006" y2="66.2857" gradientUnits="userSpaceOnUse">
<stop stop-color="#6345ED"/>
<stop offset="1" stop-color="#DC39FC"/>
</linearGradient>
</defs>
</svg>
