<svg width="23" height="20" viewBox="0 0 23 20" fill="none" xmlns="http://www.w3.org/2000/svg">
<g clip-path="url(#clip0_1953_2100)">
<path d="M12.0436 3.20007C12.0436 3.52037 11.8269 3.73355 11.5023 3.73355C11.1776 3.73355 10.9609 3.52037 10.9609 3.20007V0.533471C10.9609 0.213165 11.1776 0 11.5023 0C11.8273 0 12.0436 0.213536 12.0436 0.533471V3.20007Z" fill="#F5AAAA"/>
<path d="M19.1341 3.89332L17.2398 5.76014C17.0212 5.97664 16.7019 5.97664 16.4826 5.76014C16.2662 5.54698 16.2662 5.22667 16.4826 5.01351L18.3768 3.1467C18.5927 2.93352 18.9181 2.93352 19.1341 3.1467C19.3503 3.35986 19.3503 3.68016 19.1341 3.89332Z" fill="#F5AAAA"/>
<path d="M19.0726 10.1333H21.7784C22.1034 10.1333 22.3198 10.3468 22.3198 10.6668C22.3198 10.9871 22.103 11.2002 21.7784 11.2002H19.0726C18.7476 11.2002 18.5312 10.9867 18.5312 10.6668C18.5312 10.3465 18.748 10.1333 19.0726 10.1333Z" fill="#F5AAAA"/>
<path d="M6.52503 5.76014C6.31289 5.96958 5.98184 5.97144 5.76742 5.76014L3.87317 3.89332C3.65686 3.68016 3.65686 3.35986 3.87317 3.1467C4.08945 2.93352 4.41447 2.93352 4.63077 3.1467L6.52503 5.01351C6.74134 5.22666 6.74134 5.54696 6.52503 5.76014Z" fill="#F5AAAA"/>
<path d="M3.92681 10.1333C4.25183 10.1333 4.46814 10.3468 4.46814 10.6668C4.46814 10.9867 4.25183 11.2002 3.92681 11.2002H1.221C0.895989 11.2002 0.679688 10.9867 0.679688 10.6668C0.679688 10.3465 0.896366 10.1333 1.221 10.1333H3.92681Z" fill="#F5AAAA"/>
<path d="M4.94942 17.4993H17.9373C18.5326 17.4993 19.0196 17.9791 19.0196 18.5658C19.0196 19.1525 18.5326 19.6323 17.9373 19.6323H4.94942C4.35415 19.6323 3.86719 19.1525 3.86719 18.5658C3.86719 17.9791 4.35412 17.4993 4.94942 17.4993Z" fill="#84888E"/>
<path d="M6.03906 10.9042C6.03906 7.97088 8.47419 5.57104 11.4507 5.57104C14.4272 5.57104 16.8624 7.97088 16.8624 10.9042V16.2374H6.03906V10.9042Z" fill="#EA5656"/>
<path d="M16.1841 9.39238C16.1841 11.4239 14.0426 13.0709 11.4007 13.0709C8.75883 13.0709 6.61719 11.4239 6.61719 9.39238C6.61719 7.46386 8.79507 5.57104 11.4369 5.57104C14.0788 5.57104 16.1841 7.36082 16.1841 9.39238Z" fill="#F08080"/>
</g>
<defs>
<clipPath id="clip0_1953_2100">
<rect width="23" height="20" fill="white"/>
</clipPath>
</defs>
</svg>
