<svg width="40" height="40" viewBox="0 0 40 40" fill="none" xmlns="http://www.w3.org/2000/svg">
<circle cx="20" cy="20" r="20" fill="#6345ED"/>
<path d="M27.3438 16.75C27.9688 16.2812 28.5312 15.7188 28.9688 15.0625C28.4062 15.3125 27.75 15.5 27.0938 15.5625C27.7812 15.1562 28.2812 14.5312 28.5312 13.75C27.9062 14.125 27.1875 14.4062 26.4688 14.5625C25.8438 13.9062 25 13.5312 24.0625 13.5312C22.25 13.5312 20.7812 15 20.7812 16.8125C20.7812 17.0625 20.8125 17.3125 20.875 17.5625C18.1562 17.4062 15.7188 16.0938 14.0938 14.125C13.8125 14.5938 13.6562 15.1562 13.6562 15.7812C13.6562 16.9062 14.2188 17.9062 15.125 18.5C14.5938 18.4688 14.0625 18.3438 13.625 18.0938V18.125C13.625 19.7188 14.75 21.0312 16.25 21.3438C16 21.4062 15.6875 21.4688 15.4062 21.4688C15.1875 21.4688 15 21.4375 14.7812 21.4062C15.1875 22.7188 16.4062 23.6562 17.8438 23.6875C16.7188 24.5625 15.3125 25.0938 13.7812 25.0938C13.5 25.0938 13.25 25.0625 13 25.0312C14.4375 25.9688 16.1562 26.5 18.0312 26.5C24.0625 26.5 27.3438 21.5312 27.3438 17.1875C27.3438 17.0312 27.3438 16.9062 27.3438 16.75Z" fill="white"/>
</svg>
