<?xml version="1.0" encoding="utf-8"?>
<!-- Generator: Adobe Illustrator 26.0.1, SVG Export Plug-In . SVG Version: 6.00 Build 0)  -->
<svg version="1.1" id="Layer_1" xmlns="http://www.w3.org/2000/svg" xmlns:xlink="http://www.w3.org/1999/xlink" x="0px" y="0px"
	 viewBox="0 0 512 512" style="enable-background:new 0 0 512 512;" xml:space="preserve">
<style type="text/css">
	.st0{fill:#503ECE;}
	.st1{fill:#6345ED;}
	.st2{fill:#F7F0EB;}
	.st3{fill:#FFFBF5;}
</style>
<g>
	<path class="st0" d="M512,256l-58-64.4l9.1-86.2l-84.8-17.9l-43.2-75.1L256,47.8L245.3,256L256,464.2l79.1,35.4l43.2-75.1
		l84.8-17.9l-9.1-86.2L512,256z"/>
	<path class="st1" d="M176.9,12.5l-43.2,75.1l-84.8,17.9l9.1,86.2L0,256l58,64.4l-9.1,86.2l84.8,17.9l43.2,75.1l79.1-35.4V47.8
		L176.9,12.5z"/>
	<path class="st2" d="M363.3,199.9l-22.4-20L256,275.1l-10.7,23.6l10.7,21.5L363.3,199.9z"/>
	<path class="st3" d="M166.8,233.4l-21.2,21.2l89.3,89.3l21.2-23.7v-45.1l-22.4,25.1L166.8,233.4z"/>
</g>
</svg>
